<svg width="128" height="371" viewBox="0 0 128 371" fill="none" xmlns="http://www.w3.org/2000/svg">
<path fill-rule="evenodd" clip-rule="evenodd" d="M223.373 145.947C223.378 171.861 214.401 215.811 202.118 235.143C183.413 264.58 154.241 278.028 117.701 282.834C49.1384 291.853 -8.56192e-06 247.553 -7.14804e-06 215.207C-5.82743e-06 184.995 10.2084 166.365 39.2216 145.947C68.2349 125.53 88.5092 110.948 101.843 86.5371C114.979 62.4885 132.113 51.6791 150.006 51.6791C169.359 51.6791 188.307 59.1644 202.118 76.7218C216.208 94.6339 223.368 120.04 223.373 145.947Z" fill="#E2E8F0"/>
<path fill-rule="evenodd" clip-rule="evenodd" d="M68.3217 229.135C59.7453 243.985 49.5701 271.693 49.1491 286.222C48.5079 308.346 58.2496 324.246 74.4343 337.263C104.803 361.688 143.364 350.1 154.066 331.563C164.063 314.249 165.261 300.705 157.903 280.855C150.545 261.005 145.508 246.955 147.098 229.22C148.665 211.749 143.907 200.742 135.202 195.716C125.788 190.281 114.094 189.249 101.567 195.432C88.7858 201.74 76.896 214.29 68.3217 229.135Z" fill="#FACC15"/>
<g clip-path="url(#clip0_356_24424)">
<path d="M118.445 105.954L116.485 106.984L116.86 104.802L115.274 103.257L117.465 102.938L118.445 100.953L119.425 102.938L121.615 103.257L120.03 104.802L120.405 106.984L118.445 105.954Z" fill="#94A3B8"/>
</g>
<g clip-path="url(#clip1_356_24424)">
<path d="M127.967 4.58361L126.428 5.39289L126.722 3.67856L125.476 2.46451L127.197 2.21437L127.967 0.654419L128.737 2.21437L130.458 2.46451L129.212 3.67856L129.507 5.39289L127.967 4.58361Z" fill="#94A3B8"/>
</g>
<g clip-path="url(#clip2_356_24424)">
<path d="M128.984 83.5051C128.395 83.5051 127.917 83.0271 127.917 82.4374C127.917 81.8477 128.395 81.3696 128.984 81.3696C129.574 81.3696 130.052 81.8477 130.052 82.4374C130.052 83.0271 129.574 83.5051 128.984 83.5051Z" fill="#94A3B8"/>
</g>
<g clip-path="url(#clip3_356_24424)">
<path d="M92.3264 103.122C91.5751 103.122 90.9661 102.513 90.9661 101.761C90.9661 101.01 91.5751 100.401 92.3264 100.401C93.0777 100.401 93.6867 101.01 93.6867 101.761C93.6867 102.513 93.0777 103.122 92.3264 103.122Z" fill="#94A3B8"/>
</g>
<path d="M50.4534 113.631V112.497C50.4534 112.437 50.4295 112.379 50.387 112.337C50.3445 112.294 50.2868 112.27 50.2267 112.27C50.1666 112.27 50.1089 112.294 50.0664 112.337C50.0239 112.379 50 112.437 50 112.497V113.631H48.8664C48.8062 113.631 48.7486 113.655 48.7061 113.697C48.6635 113.74 48.6396 113.797 48.6396 113.857C48.6396 113.918 48.6635 113.975 48.7061 114.018C48.7486 114.06 48.8062 114.084 48.8664 114.084H50V115.218C50 115.278 50.0239 115.335 50.0664 115.378C50.1089 115.421 50.1666 115.444 50.2267 115.444C50.2868 115.444 50.3445 115.421 50.387 115.378C50.4295 115.335 50.4534 115.278 50.4534 115.218V114.084H51.587C51.6472 114.084 51.7048 114.06 51.7473 114.018C51.7899 113.975 51.8137 113.918 51.8137 113.857C51.8137 113.797 51.7899 113.74 51.7473 113.697C51.7048 113.655 51.6472 113.631 51.587 113.631H50.4534Z" fill="#94A3B8"/>
<defs>
<clipPath id="clip0_356_24424">
<rect width="7.61782" height="7.61782" fill="white" transform="translate(114.636 100.12)"/>
</clipPath>
<clipPath id="clip1_356_24424">
<rect width="5.98543" height="5.98543" fill="white" transform="translate(124.974)"/>
</clipPath>
<clipPath id="clip2_356_24424">
<rect width="2.5626" height="2.5626" fill="white" transform="translate(127.703 81.1491)"/>
</clipPath>
<clipPath id="clip3_356_24424">
<rect width="3.26478" height="3.26478" fill="white" transform="translate(90.6941 100.12)"/>
</clipPath>
</defs>
</svg>
