<svg width="33" height="32" viewBox="0 0 33 32" fill="none" xmlns="http://www.w3.org/2000/svg">
<path d="M5.02512 6.0672L0.0576172 11.0347L5.02512 16.0022L9.99262 11.0347L5.02512 6.0672Z" fill="#64748B"/>
<path d="M10.001 11.0325L5.03167 6.06313C6.34857 7.38051 7.08838 9.167 7.08838 11.0297C7.08838 12.8925 6.34857 14.679 5.03167 15.9963L0.0622559 20.9602L5.03167 25.9295L10.001 20.9602L14.9704 15.9963L10.001 11.0325Z" fill="#CBD5E1"/>
<path d="M27.0849 25.9403L32.0523 20.9728L27.0849 16.0053L22.1174 20.9728L27.0849 25.9403Z" fill="#64748B"/>
<path d="M22.1181 20.9713L27.0875 25.9351C25.7706 24.6178 25.0308 22.8313 25.0308 20.9685C25.0308 19.1058 25.7706 17.3193 27.0875 16.0019L32.057 11.0325L27.0875 6.06313L22.1181 11.0325L17.1543 16.0019L22.1181 20.9713Z" fill="#CBD5E1"/>
<path d="M6.12427 27.0325L11.0918 32L16.0593 27.0325L11.0918 22.065L6.12427 27.0325Z" fill="#64748B"/>
<path d="M11.0922 22.0575L6.1228 27.0269C7.44018 25.71 9.22663 24.9702 11.0894 24.9702C12.9521 24.9702 14.7386 25.71 16.056 27.0269L21.0198 31.9964L25.9892 27.0269L21.0198 22.0575L16.056 17.0937L11.0922 22.0575Z" fill="#CBD5E1"/>
<path d="M25.9983 4.96754L21.0307 0L16.0632 4.9675L21.0307 9.93504L25.9983 4.96754Z" fill="#64748B"/>
<path d="M21.0309 9.94053L25.9948 4.97115C24.6774 6.28805 22.8909 7.02786 21.0282 7.02786C19.1654 7.02786 17.379 6.28805 16.0616 4.97115L11.0922 0.0017395L6.1228 4.97115L11.0922 9.94053L16.0616 14.9099L21.0309 9.94053Z" fill="#CBD5E1"/>
</svg>
