<svg width="28" height="32" viewBox="0 0 28 32" fill="none" xmlns="http://www.w3.org/2000/svg">
<path d="M13.9785 3.11148L19.296 6.18212L21.9921 4.62978L13.9785 0L0.593018 7.73445L3.27556 9.28679L13.9785 3.11148Z" fill="#64748B"/>
<path d="M24.6768 6.18213L13.9807 12.3574L8.66323 9.2868L5.97388 10.8391L13.9807 15.4621L27.373 7.73446L24.6768 6.18213Z" fill="#64748B"/>
<path d="M2.74624 16.5719L0.0568848 15.0196V24.2655L13.4424 32V28.8953L2.74624 22.7132V16.5719Z" fill="#64748B"/>
<path d="M0.0568848 11.9148L10.753 18.0901V24.2314L13.4424 25.7905V16.5378L0.0568848 8.81012V11.9148Z" fill="#64748B"/>
<path d="M22.5326 15.0195V11.9149L14.519 16.5378V31.9999L17.2084 30.4476V18.0902L22.5326 15.0195Z" fill="#64748B"/>
<path d="M25.2147 10.3625V22.7131L19.8972 25.7905V28.8952L27.9108 24.2654V8.81012L25.2147 10.3625Z" fill="#64748B"/>
</svg>
