<svg width="65" height="65" viewBox="0 0 65 65" fill="none" xmlns="http://www.w3.org/2000/svg">
<path d="M32.5 6.5C18.1638 6.5 6.5 18.1638 6.5 32.5C6.5 46.8363 18.1638 58.5 32.5 58.5C46.8363 58.5 58.5 46.8363 58.5 32.5C58.5 18.1638 46.8363 6.5 32.5 6.5ZM41.8363 38.1025C40.7738 39.3975 36.875 42.9125 32.5 46.0413C28.125 42.9163 24.2263 39.3975 23.1638 38.1025C20.6638 35.0563 19.4662 31.9275 19.5012 28.54C19.54 24.6575 22.6538 21.4988 26.4425 21.4988C29.1925 21.4988 31.105 23.05 32.2163 24.3438L32.5 24.6875L32.7837 24.3438C33.875 23.0363 35.8025 21.5 38.5575 21.5C42.3463 21.5 45.46 24.6588 45.4987 28.5413C45.5337 31.9275 44.335 35.0563 41.8363 38.1025Z" fill="#FACC15"/>
<path d="M42.996 39.0538L42.9959 39.054C41.8074 40.5024 37.7814 44.1084 33.3725 47.2614L32.5005 47.885L31.6281 47.2619C27.2182 44.1119 23.1926 40.5024 22.0042 39.0541L42.996 39.0538ZM42.996 39.0538C45.6795 35.7824 47.0377 32.3209 46.9987 28.5263M42.996 39.0538L46.9987 28.5263M32.4933 22.4707C31.1558 21.2286 29.1454 19.9988 26.4425 19.9988C21.7973 19.9988 18.0482 23.8541 18.0013 28.5245L32.4933 22.4707ZM32.4933 22.4707C33.8346 21.2139 35.8572 20 38.5575 20C43.2028 20 46.952 23.8557 46.9987 28.5263M32.4933 22.4707L46.9987 28.5263M18.0013 28.5251C17.9622 32.3205 19.319 35.7821 22.0041 39.054L18.0013 28.5251Z" fill="#FB923C" stroke="#0F172A" stroke-width="3"/>
</svg>
