<svg width="1162" height="71" viewBox="0 0 1162 71" fill="none" xmlns="http://www.w3.org/2000/svg">
<rect x="0.5" y="3.03235" width="65" height="65" rx="14.5" fill="white"/>
<rect x="0.5" y="3.03235" width="65" height="65" rx="14.5" stroke="#CBD5E1"/>
<path d="M53.8001 15.2656H12.2001C10.7274 15.2656 9.53345 16.4595 9.53345 17.9323V53.1323C9.53345 54.605 10.7274 55.799 12.2001 55.799H53.8001C55.2729 55.799 56.4668 54.605 56.4668 53.1323V17.9323C56.4668 16.4595 55.2729 15.2656 53.8001 15.2656Z" fill="#F4B401"/>
<path d="M52.2001 18.999H13.8V52.0657H52.2001V18.999Z" fill="#1BA261"/>
<path fill-rule="evenodd" clip-rule="evenodd" d="M41.2684 38.2004C38.4467 38.2004 36.1122 39.2437 35.724 40.6008H35.6672V43.008H46.8695V40.6008H46.8128C46.4245 39.2437 44.0901 38.2004 41.2684 38.2004ZM41.2684 36.6C42.5941 36.6 43.6688 35.5253 43.6688 34.1996C43.6688 32.8738 42.5941 31.7991 41.2684 31.7991C39.9426 31.7991 38.8679 32.8738 38.8679 34.1996C38.8679 35.5253 39.9426 36.6 41.2684 36.6Z" fill="white" fill-opacity="0.395777"/>
<path fill-rule="evenodd" clip-rule="evenodd" d="M24.7344 38.2004C21.9127 38.2004 19.5783 39.2437 19.19 40.6008H19.1333V43.008H30.3355V40.6008H30.2788C29.8906 39.2437 27.5562 38.2004 24.7344 38.2004ZM24.7344 36.6C26.0602 36.6 27.1349 35.5253 27.1349 34.1996C27.1349 32.8738 26.0602 31.7991 24.7344 31.7991C23.4087 31.7991 22.3339 32.8738 22.3339 34.1996C22.3339 35.5253 23.4087 36.6 24.7344 36.6Z" fill="white" fill-opacity="0.395777"/>
<path fill-rule="evenodd" clip-rule="evenodd" d="M33.0001 36.599C29.2386 36.599 26.1266 37.9898 25.6091 39.799H25.5334V43.008H40.4668V39.799H40.3912C39.8736 37.9898 36.7617 36.599 33.0001 36.599ZM33.0001 34.4657C34.7674 34.4657 36.2001 33.033 36.2001 31.2657C36.2001 29.4984 34.7674 28.0657 33.0001 28.0657C31.2328 28.0657 29.8001 29.4984 29.8001 31.2657C29.8001 33.033 31.2328 34.4657 33.0001 34.4657Z" fill="#F7F7F7"/>
<path fill-rule="evenodd" clip-rule="evenodd" d="M37.2668 51.5323L41.5335 55.799H51.1335L46.8668 51.5323H37.2668Z" fill="url(#paint0_linear_345_20303)" fill-opacity="0.6"/>
<g filter="url(#filter0_d_345_20303)">
<path d="M46.8668 49.399H37.2668V51.5324H46.8668V49.399Z" fill="#F1F1F1"/>
</g>
<rect x="136.5" y="2.03235" width="67" height="67" rx="15.5" fill="white"/>
<rect x="136.5" y="2.03235" width="67" height="67" rx="15.5" stroke="#FB923C" stroke-width="3"/>
<g filter="url(#filter1_i_345_20303)">
<path fill-rule="evenodd" clip-rule="evenodd" d="M161.962 14.7323H177.962L193.429 42.4656H177.429L161.962 14.7323Z" fill="#FFCF48"/>
</g>
<g filter="url(#filter2_i_345_20303)">
<path fill-rule="evenodd" clip-rule="evenodd" d="M154.571 55.2656C156.89 50.9587 162.038 42.4656 162.038 42.4656H193.504L185.504 56.3322H154.571C154.571 56.3322 154.401 55.581 154.571 55.2656Z" fill="#4587F4"/>
</g>
<path fill-rule="evenodd" clip-rule="evenodd" d="M161.962 14.7323L169.962 29.1323L154.495 56.3323L146.495 42.4656L161.962 14.7323Z" fill="#1BA261"/>
<path fill-rule="evenodd" clip-rule="evenodd" d="M162.37 42.4945L169.133 55.7861H154.822L162.37 42.4945Z" fill="url(#paint1_linear_345_20303)"/>
<path fill-rule="evenodd" clip-rule="evenodd" d="M162.37 42.4945L169.133 55.7861H154.822L162.37 42.4945Z" fill="url(#paint2_linear_345_20303)"/>
<path fill-rule="evenodd" clip-rule="evenodd" d="M161.977 14.7502L166.624 34.9924L169.987 29.1134L161.977 14.7502Z" fill="url(#paint3_linear_345_20303)"/>
<rect x="274.5" y="3.03235" width="65" height="65" rx="14.5" fill="white"/>
<rect x="274.5" y="3.03235" width="65" height="65" rx="14.5" stroke="#CBD5E1"/>
<path d="M323.8 14.999H290.2C288.138 14.999 286.467 16.6705 286.467 18.7324V52.3324C286.467 54.3942 288.138 56.0657 290.2 56.0657H323.8C325.862 56.0657 327.533 54.3942 327.533 52.3324V18.7324C327.533 16.6705 325.862 14.999 323.8 14.999Z" fill="#4C8BF5"/>
<mask id="mask0_345_20303" style="mask-type:alpha" maskUnits="userSpaceOnUse" x="286" y="14" width="42" height="43">
<path d="M323.8 14.999H290.2C288.138 14.999 286.467 16.6705 286.467 18.7324V52.3324C286.467 54.3942 288.138 56.0657 290.2 56.0657H323.8C325.862 56.0657 327.533 54.3942 327.533 52.3324V18.7324C327.533 16.6705 325.862 14.999 323.8 14.999Z" fill="white"/>
</mask>
<g mask="url(#mask0_345_20303)">
<path fill-rule="evenodd" clip-rule="evenodd" d="M295.787 47.332L306.466 57.3931H328.216L328.6 34.7323L318.498 24.0115L317.916 42.4394L304.908 47.332H295.787Z" fill="url(#paint4_linear_345_20303)"/>
<g filter="url(#filter3_ii_345_20303)">
<path d="M323.8 14.999H290.2C288.138 14.999 286.467 16.6705 286.467 18.7324V52.3324C286.467 54.3942 288.138 56.0657 290.2 56.0657H323.8C325.862 56.0657 327.533 54.3942 327.533 52.3324V18.7324C327.533 16.6705 325.862 14.999 323.8 14.999Z" fill="black" fill-opacity="0.01"/>
</g>
</g>
<mask id="mask1_345_20303" style="mask-type:alpha" maskUnits="userSpaceOnUse" x="286" y="14" width="42" height="43">
<path d="M323.8 14.999H290.2C288.138 14.999 286.467 16.6705 286.467 18.7324V52.3324C286.467 54.3942 288.138 56.0657 290.2 56.0657H323.8C325.862 56.0657 327.533 54.3942 327.533 52.3324V18.7324C327.533 16.6705 325.862 14.999 323.8 14.999Z" fill="white"/>
</mask>
<g mask="url(#mask1_345_20303)">
<g filter="url(#filter4_d_345_20303)">
<path fill-rule="evenodd" clip-rule="evenodd" d="M307 51.7991C315.984 51.7991 323.266 44.5163 323.266 35.5324C323.266 26.5486 315.984 19.2657 307 19.2657C298.016 19.2657 290.733 26.5486 290.733 35.5324C290.733 44.5163 298.016 51.7991 307 51.7991Z" fill="#F5F5F5"/>
</g>
<path fill-rule="evenodd" clip-rule="evenodd" d="M304.299 27.3311C302.138 28.0539 300.297 29.635 299.272 31.6357C298.914 32.3259 298.656 33.0581 298.499 33.8183C298.108 35.7024 298.38 37.7124 299.267 39.4287C299.844 40.5479 300.674 41.5459 301.676 42.3248C302.625 43.0616 303.727 43.612 304.9 43.9151C306.379 44.3022 307.953 44.2929 309.441 43.9617C310.786 43.6586 312.06 43.029 313.076 42.1149C314.149 41.1495 314.917 39.881 315.323 38.5146C315.766 37.0269 315.824 35.4366 315.547 33.9069H307.199V37.2927H312.036C311.85 38.3746 311.192 39.3634 310.262 39.9743C309.675 40.3614 309.002 40.6086 308.306 40.7298C307.61 40.8464 306.885 40.8604 306.188 40.7251C305.477 40.5853 304.805 40.2961 304.213 39.8904C303.269 39.2421 302.549 38.2954 302.181 37.2274C301.804 36.1408 301.8 34.9329 302.181 33.8509C302.448 33.0861 302.887 32.3818 303.469 31.8035C304.185 31.0854 305.115 30.5723 306.121 30.3625C306.98 30.1853 307.886 30.2179 308.726 30.4651C309.441 30.675 310.1 31.0621 310.639 31.5657C311.182 31.0341 311.726 30.5024 312.27 29.9707C312.556 29.6863 312.857 29.4111 313.133 29.1173C312.308 28.3711 311.335 27.7695 310.276 27.3871C308.368 26.6968 306.221 26.6829 304.299 27.3311Z" fill="#4C8BF5"/>
<path fill-rule="evenodd" clip-rule="evenodd" d="M323.267 21.399C324.445 21.399 325.4 20.4438 325.4 19.2657C325.4 18.0875 324.445 17.1323 323.267 17.1323C322.088 17.1323 321.133 18.0875 321.133 19.2657C321.133 20.4438 322.088 21.399 323.267 21.399ZM290.733 21.399C291.911 21.399 292.867 20.4438 292.867 19.2657C292.867 18.0875 291.911 17.1323 290.733 17.1323C289.555 17.1323 288.6 18.0875 288.6 19.2657C288.6 20.4438 289.555 21.399 290.733 21.399ZM323.267 53.9323C324.445 53.9323 325.4 52.9772 325.4 51.799C325.4 50.6208 324.445 49.6657 323.267 49.6657C322.088 49.6657 321.133 50.6208 321.133 51.799C321.133 52.9772 322.088 53.9323 323.267 53.9323ZM290.733 53.9323C291.911 53.9323 292.867 52.9772 292.867 51.799C292.867 50.6208 291.911 49.6657 290.733 49.6657C289.555 49.6657 288.6 50.6208 288.6 51.799C288.6 52.9772 289.555 53.9323 290.733 53.9323Z" fill="#A4C4FA"/>
</g>
<rect x="411.5" y="3.03235" width="65" height="65" rx="14.5" fill="white"/>
<rect x="411.5" y="3.03235" width="65" height="65" rx="14.5" stroke="#CBD5E1"/>
<path fill-rule="evenodd" clip-rule="evenodd" d="M423.731 22.5441C422.557 22.5441 421.6 23.5156 421.6 24.7139V51.7625C421.6 52.9585 422.554 53.9323 423.731 53.9323H464.269C465.444 53.9323 466.4 52.9609 466.4 51.7625V24.7139C466.4 23.5179 465.446 22.5441 464.269 22.5441H456.349C455.992 22.3257 455.635 22.0681 455.293 21.7644C453.339 20.0305 453.047 19.0111 453.047 19.0111C452.602 17.9735 451.286 17.1323 450.11 17.1323H444V19.8382V17.1323H437.89C436.714 17.1323 435.398 17.9735 434.954 19.0111C434.954 19.0111 434.661 20.0305 432.707 21.7644C432.365 22.0681 432.008 22.3257 431.651 22.5441H423.731Z" fill="url(#paint5_linear_345_20303)"/>
<path fill-rule="evenodd" clip-rule="evenodd" d="M453.047 19.0111C453.047 19.0111 453.339 20.0305 455.293 21.7644C455.635 22.0681 455.992 22.3257 456.349 22.5441H464.269C465.446 22.5441 466.4 23.5179 466.4 24.7139V51.7625C466.4 52.9609 465.444 53.9323 464.269 53.9323H423.731C422.554 53.9323 421.6 52.9585 421.6 51.7625V24.7139C421.6 23.5156 422.557 22.5441 423.731 22.5441H431.651C432.008 22.3257 432.365 22.0681 432.707 21.7644C434.661 20.0305 434.954 19.0111 434.954 19.0111C435.398 17.9735 436.714 17.1323 437.89 17.1323H450.11C451.286 17.1323 452.602 17.9735 453.047 19.0111ZM450.11 16.1323C450.924 16.1323 451.731 16.4181 452.391 16.8402C453.049 17.261 453.647 17.8725 453.966 18.6171L453.991 18.6749L454.001 18.7112C454.005 18.7213 454.013 18.7412 454.027 18.7704C454.063 18.8454 454.135 18.9833 454.267 19.1793C454.531 19.5714 455.034 20.1974 455.957 21.0165C456.178 21.2129 456.408 21.388 456.641 21.5441H464.269C466.016 21.5441 467.4 22.9835 467.4 24.7139V51.7625C467.4 53.4966 466.012 54.9323 464.269 54.9323H423.731C421.984 54.9323 420.6 53.4928 420.6 51.7625V24.7139C420.6 22.9798 421.988 21.5441 423.731 21.5441H431.359C431.592 21.388 431.822 21.2129 432.044 21.0165C432.967 20.1974 433.47 19.5714 433.733 19.1793C433.865 18.9833 433.938 18.8454 433.973 18.7704C433.987 18.7412 433.995 18.7213 433.999 18.7112L434.01 18.6749L434.034 18.6171C434.354 17.8725 434.951 17.261 435.609 16.8402C436.269 16.4181 437.076 16.1323 437.89 16.1323H450.11Z" fill="#CBD5E1"/>
<g filter="url(#filter5_ii_345_20303)">
<path d="M425.867 21.1323C425.867 20.6905 426.225 20.3323 426.667 20.3323H428.8C429.242 20.3323 429.6 20.6905 429.6 21.1323V22.4656H425.867V21.1323Z" fill="url(#paint6_linear_345_20303)"/>
</g>
<g filter="url(#filter6_d_345_20303)">
<path fill-rule="evenodd" clip-rule="evenodd" d="M454.133 30.4656C454.722 30.4656 455.2 29.9881 455.2 29.3989C455.2 28.8098 454.722 28.3323 454.133 28.3323C453.544 28.3323 453.067 28.8098 453.067 29.3989C453.067 29.9881 453.544 30.4656 454.133 30.4656Z" fill="url(#paint7_linear_345_20303)"/>
</g>
<g filter="url(#filter7_d_345_20303)">
<path d="M466.4 25.6656H421.6V26.199H466.4V25.6656Z" fill="white"/>
</g>
<g filter="url(#filter8_d_345_20303)">
<path d="M466.4 49.6656H421.6V50.199H466.4V49.6656Z" fill="white"/>
</g>
<g filter="url(#filter9_d_345_20303)">
<path fill-rule="evenodd" clip-rule="evenodd" d="M453.933 37.9322C453.933 43.4183 449.486 47.8656 444 47.8656C438.514 47.8656 434.067 43.4183 434.067 37.9322C434.067 32.4462 438.514 27.9989 444 27.9989C449.486 27.9989 453.933 32.4462 453.933 37.9322ZM444 46.8656C448.934 46.8656 452.933 42.866 452.933 37.9322C452.933 32.9985 448.934 28.9989 444 28.9989C439.066 28.9989 435.067 32.9985 435.067 37.9322C435.067 42.866 439.066 46.8656 444 46.8656Z" fill="white"/>
</g>
<rect x="548.5" y="3.03235" width="65" height="65" rx="14.5" fill="white"/>
<rect x="548.5" y="3.03235" width="65" height="65" rx="14.5" stroke="#CBD5E1"/>
<path fill-rule="evenodd" clip-rule="evenodd" d="M581 38.5269C581.189 38.7575 588.275 47.3328 594.972 47.3328C601.761 47.3328 605.604 40.4976 605.604 40.4976C608.249 35.7558 605.904 31.1131 605.904 31.1131C605.904 31.1131 602.509 23.7318 594.972 23.7318C587.542 23.7318 581.179 32.393 581 32.639C580.821 32.393 574.458 23.7318 567.028 23.7318C559.491 23.7318 556.096 31.1131 556.096 31.1131C556.096 31.1131 553.751 35.7558 556.396 40.4976C556.396 40.4976 560.239 47.3328 567.028 47.3328C573.725 47.3328 580.811 38.7575 581 38.5269ZM567.313 27.8535C562.67 27.8535 560.694 31.6316 560.694 31.6316C560.694 31.6316 558.57 35.0151 560.694 39.3617C562.818 43.7084 567.239 43.3132 567.239 43.3132C567.239 43.3132 569.644 43.6588 573.496 40.3431C574.831 39.1941 576.339 37.6054 577.981 35.4103C577.981 35.4103 571.956 27.8535 567.313 27.8535ZM594.952 27.8535C599.595 27.8535 601.571 31.6316 601.571 31.6316C601.571 31.6316 603.695 35.0151 601.571 39.3617C599.447 43.7084 595.026 43.3132 595.026 43.3132C595.026 43.3132 592.621 43.6588 588.769 40.3431C587.434 39.1941 585.926 37.6054 584.283 35.4103C584.283 35.4103 590.309 27.8535 594.952 27.8535Z" fill="url(#paint8_linear_345_20303)"/>
<rect x="685.5" y="3.03235" width="65" height="65" rx="14.5" fill="white"/>
<rect x="685.5" y="3.03235" width="65" height="65" rx="14.5" stroke="#CBD5E1"/>
<g filter="url(#filter10_i_345_20303)">
<path d="M733.473 15.2681H702.539C700.772 15.2681 699.339 16.7008 699.339 18.4681V23.2681C699.339 25.0354 700.772 26.4681 702.539 26.4681H733.473C735.24 26.4681 736.673 25.0354 736.673 23.2681V18.4681C736.673 16.7008 735.24 15.2681 733.473 15.2681Z" fill="#C4C4C4"/>
</g>
<path fill-rule="evenodd" clip-rule="evenodd" d="M706.773 19.6299L710.775 23.8094H714.954L708.994 17.3214L706.773 19.6299Z" fill="url(#paint9_linear_345_20303)"/>
<g filter="url(#filter11_d_345_20303)">
<path fill-rule="evenodd" clip-rule="evenodd" d="M707.872 20.0682C708.756 20.0682 709.472 19.3518 709.472 18.4682C709.472 17.5845 708.756 16.8682 707.872 16.8682C706.989 16.8682 706.272 17.5845 706.272 18.4682C706.272 19.3518 706.989 20.0682 707.872 20.0682Z" fill="#EFEFEF"/>
</g>
<path fill-rule="evenodd" clip-rule="evenodd" d="M727.04 19.6299L731.042 23.8094H735.221L729.26 17.3214L727.04 19.6299Z" fill="url(#paint10_linear_345_20303)"/>
<g filter="url(#filter12_d_345_20303)">
<path fill-rule="evenodd" clip-rule="evenodd" d="M728.139 20.0682C729.023 20.0682 729.739 19.3518 729.739 18.4682C729.739 17.5845 729.023 16.8682 728.139 16.8682C727.255 16.8682 726.539 17.5845 726.539 18.4682C726.539 19.3518 727.255 20.0682 728.139 20.0682Z" fill="#EFEFEF"/>
</g>
<g filter="url(#filter13_i_345_20303)">
<path fill-rule="evenodd" clip-rule="evenodd" d="M738.871 24.8682C739.14 23.1012 737.891 21.6681 736.079 21.6681H699.921C698.111 21.6681 696.859 23.1008 697.129 24.8682L699.249 38.7331L698.101 52.5964C697.831 54.3638 700.187 55.7965 701.998 55.7965H734.189C736.001 55.7965 737.817 54.3634 737.547 52.5964L736.751 38.7334L738.871 24.8682Z" fill="#4687F4"/>
</g>
<g filter="url(#filter14_i_345_20303)">
<path fill-rule="evenodd" clip-rule="evenodd" d="M699.921 21.6681H736.079C737.891 21.6681 739.14 23.1012 738.871 24.8682L736.751 38.7348H699.249L697.129 24.8682C696.859 23.1008 698.111 21.6681 699.921 21.6681Z" fill="#3866D0"/>
</g>
<path fill-rule="evenodd" clip-rule="evenodd" d="M734.19 55.7966C736.002 55.7966 737.818 54.3635 737.548 52.5965L736.745 38.9968H699.231L715.43 55.7966H734.19Z" fill="url(#paint11_linear_345_20303)"/>
<path fill-rule="evenodd" clip-rule="evenodd" d="M720.597 32.1216L727.556 29.4619V47.8611H725.408V32.4352L720.597 34.2263V32.1216ZM710.183 37.5492H712.265C713.323 37.5492 714.071 37.2812 714.511 36.745C714.951 36.2088 715.171 35.462 715.171 34.5043C715.171 33.4811 714.92 32.7035 714.42 32.1715C713.92 31.6394 713.181 31.3734 712.205 31.3734C711.277 31.3734 710.532 31.6496 709.971 32.2022C709.411 32.7547 709.13 33.4893 709.13 34.4061H706.842L706.818 34.3324C706.778 32.9818 707.26 31.8338 708.265 30.8884C709.269 29.943 710.583 29.4703 712.205 29.4703C713.835 29.4703 715.134 29.9103 716.103 30.7902C717.071 31.6701 717.555 32.9245 717.555 34.5534C717.555 35.2901 717.335 36.0247 716.896 36.7573C716.456 37.4899 715.796 38.0485 714.916 38.4332C715.974 38.7852 716.722 39.3377 717.162 40.0908C717.602 40.8438 717.822 41.6869 717.822 42.62C717.822 44.2489 717.295 45.5299 716.242 46.463C715.189 47.3962 713.843 47.8627 712.205 47.8627C710.599 47.8627 709.269 47.4228 708.216 46.5428C707.163 45.6629 706.657 44.4699 706.697 42.9638L706.733 42.8901H709.009C709.009 43.8315 709.294 44.5804 709.862 45.137C710.431 45.6936 711.212 45.9719 712.205 45.9719C713.214 45.9719 714.004 45.6936 714.577 45.137C715.15 44.5804 715.437 43.7578 715.437 42.6691C715.437 41.5641 715.183 40.7496 714.674 40.2258C714.166 39.702 713.363 39.44 712.265 39.44H710.183V37.5492Z" fill="#EEEEEE"/>
<path fill-rule="evenodd" clip-rule="evenodd" d="M715.654 38.7362H710.183V37.5492H712.265C713.322 37.5492 714.071 37.2812 714.511 36.745C714.951 36.2088 715.17 35.462 715.17 34.5043C715.17 33.4811 714.92 32.7035 714.42 32.1715C713.92 31.6394 713.181 31.3734 712.205 31.3734C711.277 31.3734 710.532 31.6496 709.971 32.2022C709.41 32.7547 709.13 33.4893 709.13 34.4061H706.842L706.818 34.3324C706.778 32.9818 707.26 31.8338 708.265 30.8884C709.269 29.943 710.583 29.4703 712.205 29.4703C713.835 29.4703 715.134 29.9103 716.103 30.7902C717.071 31.6701 717.555 32.9245 717.555 34.5534C717.555 35.2901 717.335 36.0247 716.895 36.7573C716.456 37.4899 715.796 38.0485 714.916 38.4332C715.182 38.5216 715.428 38.6226 715.654 38.7362ZM727.556 38.727V29.4619L720.597 32.1216V34.2263L725.408 32.4352V38.727H727.556Z" fill="#D4D4D4"/>
<g filter="url(#filter15_i_345_20303)">
<path fill-rule="evenodd" clip-rule="evenodd" d="M701.999 55.7965H734.19C736.002 55.7965 737.818 54.3635 737.548 52.5964L736.752 38.7299H699.25L698.102 52.5964C697.832 54.3638 700.188 55.7965 701.999 55.7965Z" fill="black" fill-opacity="0.01"/>
</g>
<rect x="822.5" y="3.03235" width="65" height="65" rx="14.5" fill="white"/>
<rect x="822.5" y="3.03235" width="65" height="65" rx="14.5" stroke="#CBD5E1"/>
<path fill-rule="evenodd" clip-rule="evenodd" d="M855 62.1991C869.727 62.1991 881.667 50.26 881.667 35.5324C881.667 20.8048 869.727 8.86572 855 8.86572C840.272 8.86572 828.333 20.8048 828.333 35.5324C828.333 50.26 840.272 62.1991 855 62.1991Z" fill="url(#paint12_linear_345_20303)"/>
<path fill-rule="evenodd" clip-rule="evenodd" d="M837.4 48.599L842.467 51.799L848.867 40.8657L858.2 46.4657L866.467 31.5323L872.333 34.999L870.2 19.5323L855.8 25.399L861.4 28.599L856.067 38.199L846.733 32.599L837.4 48.599Z" fill="white"/>
<rect x="959.5" y="3.03235" width="65" height="65" rx="14.5" fill="white"/>
<rect x="959.5" y="3.03235" width="65" height="65" rx="14.5" stroke="#CBD5E1"/>
<path fill-rule="evenodd" clip-rule="evenodd" d="M983.102 46.7274C983.102 46.7274 986.292 43.2053 991.609 43.2053C996.925 43.2053 1000.52 46.7274 1000.52 46.7274L991.811 56.2522L983.102 46.7274ZM978.235 42.028C978.235 42.028 983.846 36.4061 991.811 36.3539C999.776 36.3011 1005.55 42.028 1005.55 42.028L1010.6 36.3533C1010.6 36.3533 1002.5 28.8408 991.811 28.8931C981.125 28.9459 972.981 36.6691 972.981 36.6691L978.235 42.028ZM968.673 31.4677C968.673 31.4677 979.118 22.2208 991.811 22.2208C1004.5 22.2208 1015.01 31.4677 1015.01 31.4677L1020.06 25.9509C1020.06 25.9509 1007.6 14.7605 991.79 14.8128C975.976 14.8656 963.944 26.1088 963.944 26.1088L968.673 31.4677Z" fill="url(#paint13_linear_345_20303)"/>
<rect x="1096.5" y="3.03235" width="65" height="65" rx="14.5" fill="white"/>
<rect x="1096.5" y="3.03235" width="65" height="65" rx="14.5" stroke="#CBD5E1"/>
<g filter="url(#filter16_ii_345_20303)">
<path d="M1146.6 18.4657H1111.4C1109.93 18.4657 1108.73 19.6596 1108.73 21.1324V45.6657C1108.73 47.1385 1109.93 48.3324 1111.4 48.3324H1146.6C1148.07 48.3324 1149.27 47.1385 1149.27 45.6657V21.1324C1149.27 19.6596 1148.07 18.4657 1146.6 18.4657Z" fill="#8E592D"/>
</g>
<g filter="url(#filter17_i_345_20303)">
<path fill-rule="evenodd" clip-rule="evenodd" d="M1123.21 48.2998C1123.21 48.2998 1125.13 41.045 1128.82 41.045C1132.51 41.045 1134.43 48.3537 1134.43 48.3537L1123.21 48.2998Z" fill="black" fill-opacity="0.01"/>
</g>
<g filter="url(#filter18_i_345_20303)">
<path fill-rule="evenodd" clip-rule="evenodd" d="M1139.67 41.9324C1142.61 41.9324 1145 39.5446 1145 36.5991C1145 33.6536 1142.61 31.2657 1139.67 31.2657C1136.72 31.2657 1134.33 33.6536 1134.33 36.5991C1134.33 39.5446 1136.72 41.9324 1139.67 41.9324Z" fill="black" fill-opacity="0.01"/>
</g>
<g filter="url(#filter19_i_345_20303)">
<path fill-rule="evenodd" clip-rule="evenodd" d="M1118.33 41.9324C1121.28 41.9324 1123.67 39.5446 1123.67 36.5991C1123.67 33.6536 1121.28 31.2657 1118.33 31.2657C1115.39 31.2657 1113 33.6536 1113 36.5991C1113 39.5446 1115.39 41.9324 1118.33 41.9324Z" fill="black" fill-opacity="0.01"/>
</g>
<g filter="url(#filter20_ii_345_20303)">
<path fill-rule="evenodd" clip-rule="evenodd" d="M1149.27 21.6656C1151.03 21.6656 1152.47 23.0956 1152.47 24.8668V49.3979C1152.47 51.1658 1151.03 52.599 1149.27 52.599H1137.63C1137.04 52.599 1136.35 52.1692 1136.09 51.6431L1132.28 43.8375C1130.47 40.1343 1127.44 40.087 1125.51 43.7364L1121.32 51.6548C1121.05 52.1763 1120.35 52.599 1119.76 52.599H1108.74C1106.97 52.599 1105.53 51.1691 1105.53 49.3979V24.8668C1105.53 23.0988 1106.97 21.6656 1108.73 21.6656H1108.97H1149.27ZM1118.33 41.9323C1121.28 41.9323 1123.67 39.5445 1123.67 36.599C1123.67 33.6535 1121.28 31.2656 1118.33 31.2656C1115.39 31.2656 1113 33.6535 1113 36.599C1113 39.5445 1115.39 41.9323 1118.33 41.9323ZM1139.67 41.9323C1142.61 41.9323 1145 39.5445 1145 36.599C1145 33.6535 1142.61 31.2656 1139.67 31.2656C1136.72 31.2656 1134.33 33.6535 1134.33 36.599C1134.33 39.5445 1136.72 41.9323 1139.67 41.9323Z" fill="#D89E4E"/>
</g>
<defs>
<filter id="filter0_d_345_20303" x="33.2668" y="44.399" width="17.6001" height="10.1333" filterUnits="userSpaceOnUse" color-interpolation-filters="sRGB">
<feFlood flood-opacity="0" result="BackgroundImageFix"/>
<feColorMatrix in="SourceAlpha" type="matrix" values="0 0 0 0 0 0 0 0 0 0 0 0 0 0 0 0 0 0 127 0" result="hardAlpha"/>
<feOffset dy="-1"/>
<feGaussianBlur stdDeviation="2"/>
<feColorMatrix type="matrix" values="0 0 0 0 0.0784314 0 0 0 0 0.592157 0 0 0 0 0.34902 0 0 0 1 0"/>
<feBlend mode="normal" in2="BackgroundImageFix" result="effect1_dropShadow_345_20303"/>
<feBlend mode="normal" in="SourceGraphic" in2="effect1_dropShadow_345_20303" result="shape"/>
</filter>
<filter id="filter1_i_345_20303" x="161.962" y="14.7323" width="32.0666" height="28.7333" filterUnits="userSpaceOnUse" color-interpolation-filters="sRGB">
<feFlood flood-opacity="0" result="BackgroundImageFix"/>
<feBlend mode="normal" in="SourceGraphic" in2="BackgroundImageFix" result="shape"/>
<feColorMatrix in="SourceAlpha" type="matrix" values="0 0 0 0 0 0 0 0 0 0 0 0 0 0 0 0 0 0 127 0" result="hardAlpha"/>
<feOffset dx="0.6" dy="1"/>
<feGaussianBlur stdDeviation="2"/>
<feComposite in2="hardAlpha" operator="arithmetic" k2="-1" k3="1"/>
<feColorMatrix type="matrix" values="0 0 0 0 1 0 0 0 0 0.88914 0 0 0 0 0.556562 0 0 0 1 0"/>
<feBlend mode="normal" in2="shape" result="effect1_innerShadow_345_20303"/>
</filter>
<filter id="filter2_i_345_20303" x="154.495" y="41.4656" width="39.609" height="14.8667" filterUnits="userSpaceOnUse" color-interpolation-filters="sRGB">
<feFlood flood-opacity="0" result="BackgroundImageFix"/>
<feBlend mode="normal" in="SourceGraphic" in2="BackgroundImageFix" result="shape"/>
<feColorMatrix in="SourceAlpha" type="matrix" values="0 0 0 0 0 0 0 0 0 0 0 0 0 0 0 0 0 0 127 0" result="hardAlpha"/>
<feOffset dx="0.6" dy="-1"/>
<feGaussianBlur stdDeviation="2"/>
<feComposite in2="hardAlpha" operator="arithmetic" k2="-1" k3="1"/>
<feColorMatrix type="matrix" values="0 0 0 0 0.580392 0 0 0 0 0.713726 0 0 0 0 0.909804 0 0 0 1 0"/>
<feBlend mode="normal" in2="shape" result="effect1_innerShadow_345_20303"/>
</filter>
<filter id="filter3_ii_345_20303" x="286.467" y="13.999" width="41.0667" height="43.0667" filterUnits="userSpaceOnUse" color-interpolation-filters="sRGB">
<feFlood flood-opacity="0" result="BackgroundImageFix"/>
<feBlend mode="normal" in="SourceGraphic" in2="BackgroundImageFix" result="shape"/>
<feColorMatrix in="SourceAlpha" type="matrix" values="0 0 0 0 0 0 0 0 0 0 0 0 0 0 0 0 0 0 127 0" result="hardAlpha"/>
<feOffset dy="1"/>
<feGaussianBlur stdDeviation="2"/>
<feComposite in2="hardAlpha" operator="arithmetic" k2="-1" k3="1"/>
<feColorMatrix type="matrix" values="0 0 0 0 0.639216 0 0 0 0 0.768627 0 0 0 0 0.976471 0 0 0 0.5 0"/>
<feBlend mode="normal" in2="shape" result="effect1_innerShadow_345_20303"/>
<feColorMatrix in="SourceAlpha" type="matrix" values="0 0 0 0 0 0 0 0 0 0 0 0 0 0 0 0 0 0 127 0" result="hardAlpha"/>
<feOffset dy="-1"/>
<feGaussianBlur stdDeviation="2"/>
<feComposite in2="hardAlpha" operator="arithmetic" k2="-1" k3="1"/>
<feColorMatrix type="matrix" values="0 0 0 0 0.639216 0 0 0 0 0.768627 0 0 0 0 0.976471 0 0 0 0.5 0"/>
<feBlend mode="normal" in2="effect1_innerShadow_345_20303" result="effect2_innerShadow_345_20303"/>
</filter>
<filter id="filter4_d_345_20303" x="288.733" y="17.2657" width="40.5334" height="40.5333" filterUnits="userSpaceOnUse" color-interpolation-filters="sRGB">
<feFlood flood-opacity="0" result="BackgroundImageFix"/>
<feColorMatrix in="SourceAlpha" type="matrix" values="0 0 0 0 0 0 0 0 0 0 0 0 0 0 0 0 0 0 127 0" result="hardAlpha"/>
<feOffset dx="2" dy="2"/>
<feGaussianBlur stdDeviation="2"/>
<feColorMatrix type="matrix" values="0 0 0 0 0 0 0 0 0 0 0 0 0 0 0 0 0 0 0.1 0"/>
<feBlend mode="normal" in2="BackgroundImageFix" result="effect1_dropShadow_345_20303"/>
<feBlend mode="normal" in="SourceGraphic" in2="effect1_dropShadow_345_20303" result="shape"/>
</filter>
<filter id="filter5_ii_345_20303" x="425.867" y="19.3323" width="3.7334" height="4.1333" filterUnits="userSpaceOnUse" color-interpolation-filters="sRGB">
<feFlood flood-opacity="0" result="BackgroundImageFix"/>
<feBlend mode="normal" in="SourceGraphic" in2="BackgroundImageFix" result="shape"/>
<feColorMatrix in="SourceAlpha" type="matrix" values="0 0 0 0 0 0 0 0 0 0 0 0 0 0 0 0 0 0 127 0" result="hardAlpha"/>
<feOffset dy="1"/>
<feGaussianBlur stdDeviation="1"/>
<feComposite in2="hardAlpha" operator="arithmetic" k2="-1" k3="1"/>
<feColorMatrix type="matrix" values="0 0 0 0 0 0 0 0 0 0 0 0 0 0 0 0 0 0 0.694265 0"/>
<feBlend mode="normal" in2="shape" result="effect1_innerShadow_345_20303"/>
<feColorMatrix in="SourceAlpha" type="matrix" values="0 0 0 0 0 0 0 0 0 0 0 0 0 0 0 0 0 0 127 0" result="hardAlpha"/>
<feOffset dy="-1"/>
<feGaussianBlur stdDeviation="2"/>
<feComposite in2="hardAlpha" operator="arithmetic" k2="-1" k3="1"/>
<feColorMatrix type="matrix" values="0 0 0 0 0.8 0 0 0 0 0.807843 0 0 0 0 0.815686 0 0 0 1 0"/>
<feBlend mode="normal" in2="effect1_innerShadow_345_20303" result="effect2_innerShadow_345_20303"/>
</filter>
<filter id="filter6_d_345_20303" x="451.067" y="27.3323" width="6.1333" height="6.1333" filterUnits="userSpaceOnUse" color-interpolation-filters="sRGB">
<feFlood flood-opacity="0" result="BackgroundImageFix"/>
<feColorMatrix in="SourceAlpha" type="matrix" values="0 0 0 0 0 0 0 0 0 0 0 0 0 0 0 0 0 0 127 0" result="hardAlpha"/>
<feOffset dy="1"/>
<feGaussianBlur stdDeviation="1"/>
<feColorMatrix type="matrix" values="0 0 0 0 0 0 0 0 0 0 0 0 0 0 0 0 0 0 0.578182 0"/>
<feBlend mode="normal" in2="BackgroundImageFix" result="effect1_dropShadow_345_20303"/>
<feBlend mode="normal" in="SourceGraphic" in2="effect1_dropShadow_345_20303" result="shape"/>
</filter>
<filter id="filter7_d_345_20303" x="420.6" y="25.6656" width="46.8" height="2.53333" filterUnits="userSpaceOnUse" color-interpolation-filters="sRGB">
<feFlood flood-opacity="0" result="BackgroundImageFix"/>
<feColorMatrix in="SourceAlpha" type="matrix" values="0 0 0 0 0 0 0 0 0 0 0 0 0 0 0 0 0 0 127 0" result="hardAlpha"/>
<feOffset dy="1"/>
<feGaussianBlur stdDeviation="0.5"/>
<feColorMatrix type="matrix" values="0 0 0 0 0 0 0 0 0 0 0 0 0 0 0 0 0 0 0.407609 0"/>
<feBlend mode="normal" in2="BackgroundImageFix" result="effect1_dropShadow_345_20303"/>
<feBlend mode="normal" in="SourceGraphic" in2="effect1_dropShadow_345_20303" result="shape"/>
</filter>
<filter id="filter8_d_345_20303" x="420.6" y="49.6656" width="46.8" height="2.53333" filterUnits="userSpaceOnUse" color-interpolation-filters="sRGB">
<feFlood flood-opacity="0" result="BackgroundImageFix"/>
<feColorMatrix in="SourceAlpha" type="matrix" values="0 0 0 0 0 0 0 0 0 0 0 0 0 0 0 0 0 0 127 0" result="hardAlpha"/>
<feOffset dy="1"/>
<feGaussianBlur stdDeviation="0.5"/>
<feColorMatrix type="matrix" values="0 0 0 0 0 0 0 0 0 0 0 0 0 0 0 0 0 0 0.407609 0"/>
<feBlend mode="normal" in2="BackgroundImageFix" result="effect1_dropShadow_345_20303"/>
<feBlend mode="normal" in="SourceGraphic" in2="effect1_dropShadow_345_20303" result="shape"/>
</filter>
<filter id="filter9_d_345_20303" x="433.567" y="27.9989" width="20.8667" height="21.3667" filterUnits="userSpaceOnUse" color-interpolation-filters="sRGB">
<feFlood flood-opacity="0" result="BackgroundImageFix"/>
<feColorMatrix in="SourceAlpha" type="matrix" values="0 0 0 0 0 0 0 0 0 0 0 0 0 0 0 0 0 0 127 0" result="hardAlpha"/>
<feOffset dy="1"/>
<feGaussianBlur stdDeviation="0.25"/>
<feColorMatrix type="matrix" values="0 0 0 0 0 0 0 0 0 0 0 0 0 0 0 0 0 0 0.579031 0"/>
<feBlend mode="normal" in2="BackgroundImageFix" result="effect1_dropShadow_345_20303"/>
<feBlend mode="normal" in="SourceGraphic" in2="effect1_dropShadow_345_20303" result="shape"/>
</filter>
<filter id="filter10_i_345_20303" x="699.339" y="15.2681" width="37.3333" height="12.2" filterUnits="userSpaceOnUse" color-interpolation-filters="sRGB">
<feFlood flood-opacity="0" result="BackgroundImageFix"/>
<feBlend mode="normal" in="SourceGraphic" in2="BackgroundImageFix" result="shape"/>
<feColorMatrix in="SourceAlpha" type="matrix" values="0 0 0 0 0 0 0 0 0 0 0 0 0 0 0 0 0 0 127 0" result="hardAlpha"/>
<feOffset dy="1"/>
<feGaussianBlur stdDeviation="2"/>
<feComposite in2="hardAlpha" operator="arithmetic" k2="-1" k3="1"/>
<feColorMatrix type="matrix" values="0 0 0 0 0.792157 0 0 0 0 0.792157 0 0 0 0 0.792157 0 0 0 1 0"/>
<feBlend mode="normal" in2="shape" result="effect1_innerShadow_345_20303"/>
</filter>
<filter id="filter11_d_345_20303" x="705.772" y="16.8682" width="5.19995" height="5.19995" filterUnits="userSpaceOnUse" color-interpolation-filters="sRGB">
<feFlood flood-opacity="0" result="BackgroundImageFix"/>
<feColorMatrix in="SourceAlpha" type="matrix" values="0 0 0 0 0 0 0 0 0 0 0 0 0 0 0 0 0 0 127 0" result="hardAlpha"/>
<feOffset dx="0.5" dy="1"/>
<feGaussianBlur stdDeviation="0.5"/>
<feColorMatrix type="matrix" values="0 0 0 0 0 0 0 0 0 0 0 0 0 0 0 0 0 0 0.1 0"/>
<feBlend mode="normal" in2="BackgroundImageFix" result="effect1_dropShadow_345_20303"/>
<feBlend mode="normal" in="SourceGraphic" in2="effect1_dropShadow_345_20303" result="shape"/>
</filter>
<filter id="filter12_d_345_20303" x="726.039" y="16.8682" width="5.19995" height="5.19995" filterUnits="userSpaceOnUse" color-interpolation-filters="sRGB">
<feFlood flood-opacity="0" result="BackgroundImageFix"/>
<feColorMatrix in="SourceAlpha" type="matrix" values="0 0 0 0 0 0 0 0 0 0 0 0 0 0 0 0 0 0 127 0" result="hardAlpha"/>
<feOffset dx="0.5" dy="1"/>
<feGaussianBlur stdDeviation="0.5"/>
<feColorMatrix type="matrix" values="0 0 0 0 0 0 0 0 0 0 0 0 0 0 0 0 0 0 0.1 0"/>
<feBlend mode="normal" in2="BackgroundImageFix" result="effect1_dropShadow_345_20303"/>
<feBlend mode="normal" in="SourceGraphic" in2="effect1_dropShadow_345_20303" result="shape"/>
</filter>
<filter id="filter13_i_345_20303" x="697.093" y="20.6681" width="41.8145" height="35.1284" filterUnits="userSpaceOnUse" color-interpolation-filters="sRGB">
<feFlood flood-opacity="0" result="BackgroundImageFix"/>
<feBlend mode="normal" in="SourceGraphic" in2="BackgroundImageFix" result="shape"/>
<feColorMatrix in="SourceAlpha" type="matrix" values="0 0 0 0 0 0 0 0 0 0 0 0 0 0 0 0 0 0 127 0" result="hardAlpha"/>
<feOffset dy="-1"/>
<feGaussianBlur stdDeviation="2"/>
<feComposite in2="hardAlpha" operator="arithmetic" k2="-1" k3="1"/>
<feColorMatrix type="matrix" values="0 0 0 0 0.258824 0 0 0 0 0.494118 0 0 0 0 0.913725 0 0 0 1 0"/>
<feBlend mode="normal" in2="shape" result="effect1_innerShadow_345_20303"/>
</filter>
<filter id="filter14_i_345_20303" x="697.093" y="21.6681" width="41.8145" height="18.0667" filterUnits="userSpaceOnUse" color-interpolation-filters="sRGB">
<feFlood flood-opacity="0" result="BackgroundImageFix"/>
<feBlend mode="normal" in="SourceGraphic" in2="BackgroundImageFix" result="shape"/>
<feColorMatrix in="SourceAlpha" type="matrix" values="0 0 0 0 0 0 0 0 0 0 0 0 0 0 0 0 0 0 127 0" result="hardAlpha"/>
<feOffset dy="1"/>
<feGaussianBlur stdDeviation="2"/>
<feComposite in2="hardAlpha" operator="arithmetic" k2="-1" k3="1"/>
<feColorMatrix type="matrix" values="0 0 0 0 0.282353 0 0 0 0 0.45098 0 0 0 0 0.831373 0 0 0 1 0"/>
<feBlend mode="normal" in2="shape" result="effect1_innerShadow_345_20303"/>
</filter>
<filter id="filter15_i_345_20303" x="698.081" y="38.7299" width="39.4944" height="17.5667" filterUnits="userSpaceOnUse" color-interpolation-filters="sRGB">
<feFlood flood-opacity="0" result="BackgroundImageFix"/>
<feBlend mode="normal" in="SourceGraphic" in2="BackgroundImageFix" result="shape"/>
<feColorMatrix in="SourceAlpha" type="matrix" values="0 0 0 0 0 0 0 0 0 0 0 0 0 0 0 0 0 0 127 0" result="hardAlpha"/>
<feOffset dy="0.5"/>
<feGaussianBlur stdDeviation="2"/>
<feComposite in2="hardAlpha" operator="arithmetic" k2="-1" k3="1"/>
<feColorMatrix type="matrix" values="0 0 0 0 0.588542 0 0 0 0 0.588542 0 0 0 0 0.588542 0 0 0 0.2 0"/>
<feBlend mode="normal" in2="shape" result="effect1_innerShadow_345_20303"/>
</filter>
<filter id="filter16_ii_345_20303" x="1108.73" y="17.4657" width="40.5334" height="31.8667" filterUnits="userSpaceOnUse" color-interpolation-filters="sRGB">
<feFlood flood-opacity="0" result="BackgroundImageFix"/>
<feBlend mode="normal" in="SourceGraphic" in2="BackgroundImageFix" result="shape"/>
<feColorMatrix in="SourceAlpha" type="matrix" values="0 0 0 0 0 0 0 0 0 0 0 0 0 0 0 0 0 0 127 0" result="hardAlpha"/>
<feOffset dy="1"/>
<feGaussianBlur stdDeviation="2"/>
<feComposite in2="hardAlpha" operator="arithmetic" k2="-1" k3="1"/>
<feColorMatrix type="matrix" values="0 0 0 0 0.6 0 0 0 0 0.411765 0 0 0 0 0.258824 0 0 0 1 0"/>
<feBlend mode="normal" in2="shape" result="effect1_innerShadow_345_20303"/>
<feColorMatrix in="SourceAlpha" type="matrix" values="0 0 0 0 0 0 0 0 0 0 0 0 0 0 0 0 0 0 127 0" result="hardAlpha"/>
<feOffset dy="-1"/>
<feGaussianBlur stdDeviation="2"/>
<feComposite in2="hardAlpha" operator="arithmetic" k2="-1" k3="1"/>
<feColorMatrix type="matrix" values="0 0 0 0 0.517647 0 0 0 0 0.317647 0 0 0 0 0.160784 0 0 0 1 0"/>
<feBlend mode="normal" in2="effect1_innerShadow_345_20303" result="effect2_innerShadow_345_20303"/>
</filter>
<filter id="filter17_i_345_20303" x="1123.21" y="41.045" width="11.2175" height="9.30872" filterUnits="userSpaceOnUse" color-interpolation-filters="sRGB">
<feFlood flood-opacity="0" result="BackgroundImageFix"/>
<feBlend mode="normal" in="SourceGraphic" in2="BackgroundImageFix" result="shape"/>
<feColorMatrix in="SourceAlpha" type="matrix" values="0 0 0 0 0 0 0 0 0 0 0 0 0 0 0 0 0 0 127 0" result="hardAlpha"/>
<feOffset dy="2"/>
<feGaussianBlur stdDeviation="1"/>
<feComposite in2="hardAlpha" operator="arithmetic" k2="-1" k3="1"/>
<feColorMatrix type="matrix" values="0 0 0 0 0 0 0 0 0 0 0 0 0 0 0 0 0 0 0.2 0"/>
<feBlend mode="normal" in2="shape" result="effect1_innerShadow_345_20303"/>
</filter>
<filter id="filter18_i_345_20303" x="1134.33" y="31.2657" width="10.6667" height="11.6666" filterUnits="userSpaceOnUse" color-interpolation-filters="sRGB">
<feFlood flood-opacity="0" result="BackgroundImageFix"/>
<feBlend mode="normal" in="SourceGraphic" in2="BackgroundImageFix" result="shape"/>
<feColorMatrix in="SourceAlpha" type="matrix" values="0 0 0 0 0 0 0 0 0 0 0 0 0 0 0 0 0 0 127 0" result="hardAlpha"/>
<feOffset dy="1"/>
<feGaussianBlur stdDeviation="2"/>
<feComposite in2="hardAlpha" operator="arithmetic" k2="-1" k3="1"/>
<feColorMatrix type="matrix" values="0 0 0 0 0 0 0 0 0 0 0 0 0 0 0 0 0 0 0.25 0"/>
<feBlend mode="normal" in2="shape" result="effect1_innerShadow_345_20303"/>
</filter>
<filter id="filter19_i_345_20303" x="1113" y="31.2657" width="10.6667" height="11.6666" filterUnits="userSpaceOnUse" color-interpolation-filters="sRGB">
<feFlood flood-opacity="0" result="BackgroundImageFix"/>
<feBlend mode="normal" in="SourceGraphic" in2="BackgroundImageFix" result="shape"/>
<feColorMatrix in="SourceAlpha" type="matrix" values="0 0 0 0 0 0 0 0 0 0 0 0 0 0 0 0 0 0 127 0" result="hardAlpha"/>
<feOffset dy="1"/>
<feGaussianBlur stdDeviation="2"/>
<feComposite in2="hardAlpha" operator="arithmetic" k2="-1" k3="1"/>
<feColorMatrix type="matrix" values="0 0 0 0 0 0 0 0 0 0 0 0 0 0 0 0 0 0 0.25 0"/>
<feBlend mode="normal" in2="shape" result="effect1_innerShadow_345_20303"/>
</filter>
<filter id="filter20_ii_345_20303" x="1105.53" y="20.6656" width="46.9333" height="32.9333" filterUnits="userSpaceOnUse" color-interpolation-filters="sRGB">
<feFlood flood-opacity="0" result="BackgroundImageFix"/>
<feBlend mode="normal" in="SourceGraphic" in2="BackgroundImageFix" result="shape"/>
<feColorMatrix in="SourceAlpha" type="matrix" values="0 0 0 0 0 0 0 0 0 0 0 0 0 0 0 0 0 0 127 0" result="hardAlpha"/>
<feOffset dy="1"/>
<feGaussianBlur stdDeviation="2"/>
<feComposite in2="hardAlpha" operator="arithmetic" k2="-1" k3="1"/>
<feColorMatrix type="matrix" values="0 0 0 0 0.862745 0 0 0 0 0.654902 0 0 0 0 0.372549 0 0 0 1 0"/>
<feBlend mode="normal" in2="shape" result="effect1_innerShadow_345_20303"/>
<feColorMatrix in="SourceAlpha" type="matrix" values="0 0 0 0 0 0 0 0 0 0 0 0 0 0 0 0 0 0 127 0" result="hardAlpha"/>
<feOffset dy="-1"/>
<feGaussianBlur stdDeviation="2"/>
<feComposite in2="hardAlpha" operator="arithmetic" k2="-1" k3="1"/>
<feColorMatrix type="matrix" values="0 0 0 0 0.811765 0 0 0 0 0.584314 0 0 0 0 0.270588 0 0 0 1 0"/>
<feBlend mode="normal" in2="effect1_innerShadow_345_20303" result="effect2_innerShadow_345_20303"/>
</filter>
<linearGradient id="paint0_linear_345_20303" x1="32.5834" y1="48.7695" x2="32.5834" y2="56.2695" gradientUnits="userSpaceOnUse">
<stop stop-color="#C26003"/>
<stop offset="1" stop-color="#F4B401" stop-opacity="0.513842"/>
</linearGradient>
<linearGradient id="paint1_linear_345_20303" x1="149.904" y1="36.338" x2="149.904" y2="57.0645" gradientUnits="userSpaceOnUse">
<stop stop-color="#155ACA"/>
<stop offset="1" stop-color="#2F71DD" stop-opacity="0.01"/>
</linearGradient>
<linearGradient id="paint2_linear_345_20303" x1="154.302" y1="50.6865" x2="158.994" y2="53.7703" gradientUnits="userSpaceOnUse">
<stop stop-color="#002D77" stop-opacity="0.8018"/>
<stop offset="1" stop-color="#2F71DD" stop-opacity="0.01"/>
</linearGradient>
<linearGradient id="paint3_linear_345_20303" x1="161.755" y1="25.4453" x2="171.299" y2="30.7038" gradientUnits="userSpaceOnUse">
<stop stop-color="#1B935A"/>
<stop offset="1" stop-color="#118B50" stop-opacity="0.01"/>
</linearGradient>
<linearGradient id="paint4_linear_345_20303" x1="297.4" y1="48.7965" x2="320.23" y2="71.9238" gradientUnits="userSpaceOnUse">
<stop stop-color="#3C70C8"/>
<stop offset="1" stop-color="#4889F4" stop-opacity="0.01"/>
</linearGradient>
<linearGradient id="paint5_linear_345_20303" x1="425.136" y1="14.4633" x2="425.136" y2="45.4536" gradientUnits="userSpaceOnUse">
<stop stop-color="#494949"/>
<stop offset="1" stop-color="#2B2B2B"/>
</linearGradient>
<linearGradient id="paint6_linear_345_20303" x1="425.867" y1="20.3323" x2="425.867" y2="22.4656" gradientUnits="userSpaceOnUse">
<stop stop-color="#494949"/>
<stop offset="1" stop-color="#2B2B2B"/>
</linearGradient>
<linearGradient id="paint7_linear_345_20303" x1="452.584" y1="27.3668" x2="452.584" y2="30.4656" gradientUnits="userSpaceOnUse">
<stop stop-color="#E9CD78"/>
<stop offset="1" stop-color="#E7B61D"/>
</linearGradient>
<linearGradient id="paint8_linear_345_20303" x1="578.137" y1="47.7318" x2="582.137" y2="23.7318" gradientUnits="userSpaceOnUse">
<stop stop-color="#FB923C"/>
<stop offset="0.496353" stop-color="#EF4444"/>
<stop offset="1" stop-color="#701A75"/>
</linearGradient>
<linearGradient id="paint9_linear_345_20303" x1="704.893" y1="20.3787" x2="708.055" y2="26.2567" gradientUnits="userSpaceOnUse">
<stop stop-color="#B0B0B0"/>
<stop offset="1" stop-color="#D8D8D8" stop-opacity="0.01"/>
</linearGradient>
<linearGradient id="paint10_linear_345_20303" x1="725.16" y1="20.3787" x2="728.321" y2="26.2567" gradientUnits="userSpaceOnUse">
<stop stop-color="#B0B0B0"/>
<stop offset="1" stop-color="#D8D8D8" stop-opacity="0.01"/>
</linearGradient>
<linearGradient id="paint11_linear_345_20303" x1="704.649" y1="40.9387" x2="706.44" y2="56.8661" gradientUnits="userSpaceOnUse">
<stop stop-color="#3C78DD"/>
<stop offset="1" stop-color="#4688F4" stop-opacity="0.01"/>
</linearGradient>
<linearGradient id="paint12_linear_345_20303" x1="828.333" y1="8.86572" x2="828.333" y2="62.1991" gradientUnits="userSpaceOnUse">
<stop stop-color="#E8016A"/>
<stop offset="1" stop-color="#EE3224"/>
</linearGradient>
<linearGradient id="paint13_linear_345_20303" x1="963.944" y1="14.8126" x2="963.944" y2="56.2522" gradientUnits="userSpaceOnUse">
<stop stop-color="#19DEFE"/>
<stop offset="1" stop-color="#1E5BEF"/>
</linearGradient>
</defs>
</svg>
