<svg width="65" height="65" viewBox="0 0 65 65" fill="none" xmlns="http://www.w3.org/2000/svg">
<path d="M15.7151 4.50002C15.6321 4.49926 15.5503 4.51914 15.4769 4.55789C15.4036 4.59663 15.341 4.65302 15.2949 4.72196C15.2488 4.7909 15.2205 4.87024 15.2127 4.95282C15.2049 5.03541 15.2177 5.11864 15.2501 5.19502L15.5376 5.87377L20.6251 17.7363C20.6596 17.817 20.7148 17.8871 20.7851 17.9397C20.8554 17.9923 20.9383 18.0254 21.0255 18.0358C21.1126 18.0462 21.201 18.0335 21.2817 17.9989C21.3623 17.9643 21.4325 17.9091 21.4851 17.8388L30.875 5.30002C30.9308 5.22574 30.9647 5.1374 30.973 5.04492C30.9814 4.95244 30.9638 4.85947 30.9223 4.77641C30.8807 4.69336 30.8169 4.62351 30.7379 4.5747C30.6589 4.52588 30.5679 4.50002 30.4751 4.50002H15.7151Z" fill="#FACC15"/>
<path d="M52.9911 7.75747L47.8311 19.8037C47.7987 19.8798 47.7856 19.9627 47.7931 20.045C47.8005 20.1274 47.8283 20.2066 47.8738 20.2756C47.9194 20.3446 47.9814 20.4012 48.0542 20.4403C48.1271 20.4795 48.2085 20.5 48.2911 20.5H60.9161C61.0053 20.5 61.0928 20.4762 61.1697 20.4311C61.2465 20.3859 61.3099 20.321 61.3533 20.2431C61.3966 20.1652 61.4184 20.0771 61.4162 19.988C61.4141 19.8989 61.3882 19.812 61.3411 19.7362L53.8749 7.69122C53.8267 7.61367 53.7581 7.55082 53.6767 7.50948C53.5952 7.46814 53.504 7.44989 53.413 7.45672C53.3219 7.46355 53.2344 7.49519 53.1601 7.54821C53.0857 7.60123 53.0273 7.6736 52.9911 7.75747Z" fill="#FACC15"/>
<path d="M11.1249 7.69628L3.66116 19.7363C3.61414 19.812 3.58821 19.8989 3.58608 19.9881C3.58395 20.0772 3.60568 20.1653 3.64903 20.2432C3.69238 20.3211 3.75576 20.3859 3.83262 20.4311C3.90948 20.4763 3.99701 20.5001 4.08616 20.5H16.7112C16.7939 20.4999 16.8753 20.4793 16.9481 20.44C17.0209 20.4007 17.0828 20.3439 17.1283 20.2748C17.1738 20.2057 17.2014 20.1263 17.2086 20.0439C17.2159 19.9615 17.2026 19.8785 17.1699 19.8025L11.9999 7.76253C11.9629 7.68074 11.9046 7.61042 11.8311 7.55894C11.7576 7.50745 11.6716 7.47671 11.5821 7.46993C11.4926 7.46316 11.4029 7.4806 11.3224 7.52042C11.242 7.56025 11.1738 7.62099 11.1249 7.69628V7.69628Z" fill="#FACC15"/>
<path d="M49.6587 4.50001H33.9775C33.9322 4.49971 33.8878 4.51209 33.8492 4.53572C33.8106 4.55936 33.7794 4.59333 33.7591 4.63377C33.7389 4.67422 33.7303 4.71953 33.7344 4.76459C33.7385 4.80965 33.7552 4.85266 33.7825 4.88876L43.7725 18.1963C43.798 18.2304 43.832 18.2573 43.8712 18.2741C43.9104 18.2909 43.9533 18.2971 43.9957 18.292C44.038 18.287 44.0783 18.2708 44.1124 18.2452C44.1465 18.2196 44.1733 18.1855 44.19 18.1463L49.45 5.87501L49.875 4.83251C49.8899 4.79672 49.896 4.75784 49.8927 4.71919C49.8893 4.68055 49.8767 4.64328 49.8558 4.6106C49.8349 4.57791 49.8064 4.55078 49.7727 4.53151C49.7391 4.51225 49.7012 4.50144 49.6625 4.50001H49.6587Z" fill="#FACC15"/>
<path d="M30.3749 56.5L19.1962 24.8138C19.1633 24.7217 19.1028 24.6422 19.0229 24.586C18.943 24.5298 18.8476 24.4998 18.7499 24.5H3.71242C3.62531 24.4998 3.53988 24.524 3.46587 24.5699C3.39186 24.6159 3.33224 24.6817 3.2938 24.7598C3.25537 24.838 3.23967 24.9254 3.24848 25.0121C3.2573 25.0987 3.29028 25.1812 3.34367 25.25L30.3437 60.2263C30.4351 60.3446 30.5655 60.4268 30.7117 60.4581C30.8579 60.4895 31.0105 60.468 31.1424 60.3975V60.3975C31.2751 60.3277 31.3782 60.2126 31.4331 60.073C31.4879 59.9335 31.4908 59.779 31.4412 59.6375L30.3749 56.5Z" fill="#FACC15"/>
<path d="M61.2875 24.5H46.25C46.1529 24.5 46.0581 24.5302 45.9788 24.5864C45.8995 24.6426 45.8397 24.722 45.8075 24.8138L33.5325 59.5837C33.481 59.7297 33.4831 59.8893 33.5385 60.0338C33.594 60.1784 33.6991 60.2984 33.835 60.3725C33.971 60.4461 34.1287 60.4691 34.28 60.4373C34.4314 60.4055 34.5665 60.3209 34.6613 60.1987L61.6563 25.25C61.7097 25.1812 61.7427 25.0987 61.7515 25.0121C61.7603 24.9254 61.7446 24.838 61.7062 24.7598C61.6677 24.6817 61.6081 24.6159 61.5341 24.5699C61.4601 24.524 61.3746 24.4998 61.2875 24.5V24.5Z" fill="#FACC15"/>
<path d="M32.8999 10.3663L39.8999 19.7C39.9556 19.7743 39.9895 19.8626 39.9979 19.9551C40.0062 20.0476 39.9886 20.1406 39.9471 20.2236C39.9056 20.3067 39.8417 20.3765 39.7628 20.4253C39.6838 20.4742 39.5927 20.5 39.4999 20.5H25.4999C25.407 20.5 25.316 20.4742 25.237 20.4253C25.158 20.3765 25.0942 20.3067 25.0527 20.2236C25.0111 20.1406 24.9936 20.0476 25.0019 19.9551C25.0102 19.8626 25.0442 19.7743 25.0999 19.7L32.0999 10.3663C32.1465 10.3042 32.2068 10.2538 32.2763 10.219C32.3457 10.1843 32.4223 10.1663 32.4999 10.1663C32.5775 10.1663 32.6541 10.1843 32.7235 10.219C32.7929 10.2538 32.8533 10.3042 32.8999 10.3663ZM32.0249 49.155L23.5624 25.1663C23.5358 25.0909 23.5277 25.0102 23.5387 24.9311C23.5497 24.8519 23.5796 24.7765 23.6257 24.7113C23.6719 24.646 23.733 24.5928 23.804 24.556C23.875 24.5193 23.9537 24.5001 24.0336 24.5H40.9661C41.0461 24.5001 41.1248 24.5193 41.1958 24.556C41.2668 24.5928 41.3279 24.646 41.374 24.7113C41.4202 24.7765 41.45 24.8519 41.4611 24.9311C41.4721 25.0102 41.464 25.0909 41.4374 25.1663L32.9711 49.155C32.9366 49.2524 32.8728 49.3367 32.7884 49.3963C32.704 49.4559 32.6032 49.4879 32.4999 49.4879C32.3966 49.4879 32.2958 49.4559 32.2114 49.3963C32.127 49.3367 32.0632 49.2524 32.0286 49.155H32.0249Z" fill="#FB923C"/>
</svg>
